# xmcd
#
# Track frame offsets: 
#        150
#        17722
#        43589
#        63209
#        81142
#        96973
#        115324
#        137329
#        155790
#        173349
#        190632
#        206732
#        230709
#        247637
#        264324
#        283710
#        302733
#
# Disc length: 4350 seconds
#
# Revision: 0
# Processed by: cddbd v1.5.2PL0 Copyright (c) Steve Scherf et al.
# Submitted via: ExactAudioCopy v0.95b4
#
DISCID=db10fc11
DTITLE=Air Supply - Greatest Hits of...
DYEAR=2002
DGENRE=Pop
TTITLE0=Lost in love
TTITLE1=Making love out of nothing at all
TTITLE2=The one that you love
TTITLE3=Even the nights are better
TTITLE4=Every woman in the world
TTITLE5=All out of love
TTITLE6=Without you
TTITLE7=Goodbye
TTITLE8=Too sentimental
TTITLE9=Here I am
TTITLE10=Changes
TTITLE11=Sweet dreams
TTITLE12=Unchained melody
TTITLE13=Love and other bruises
TTITLE14=Now and forever
TTITLE15=Always
TTITLE16=Someone
EXTD=
EXTT0=
EXTT1=
EXTT2=
EXTT3=
EXTT4=
EXTT5=
EXTT6=
EXTT7=
EXTT8=
EXTT9=
EXTT10=
EXTT11=
EXTT12=
EXTT13=
EXTT14=
EXTT15=
EXTT16=
PLAYORDER=
